<?xml version="1.0" encoding="UTF-8" standalone="yes"?>
<svg xmlns="http://www.w3.org/2000/svg" height="452" width="452">
<script type="text/ecmascript">
      <![CDATA[
        var shown = 1;
        function click() {
             var seq = document.getElementById("seq");
             if (shown==1) {
               seq.setAttribute("style", "visibility: hidden");
               shown = 0;
             } else {
               seq.setAttribute("style", "visibility: visible");
               shown = 1;
             }
         }
        ]]>
</script>
  <rect style="stroke: white; fill: white" height="452" x="0" y="0" width="452" onclick="click(evt)" />
  <g transform="scale(2.160166,2.160166) translate(4.621609,109.243225)">
    <polyline style="stroke: black; fill: none; stroke-width: 1.5" id="outline" points="
      92.500,-101.743
      92.500,-86.743
      92.500,-71.743
      92.500,-56.743
      92.500,-41.743
      92.500,-26.743
      92.500,-11.743
      92.500,3.257
      92.500,18.257
      92.500,33.257
      92.500,48.257
      80.405,58.169
      77.563,73.546
      85.314,87.127
      100.000,92.500
      114.686,87.127
      122.437,73.546
      119.595,58.169
      107.500,48.257
      107.500,33.257
      107.500,18.257
      107.500,3.257
      107.500,-11.743
      107.500,-26.743
      107.500,-41.743
      107.500,-56.743
      107.500,-71.743
      107.500,-86.743
      107.500,-101.743
    " />
    <g style="stroke: black; stroke-width: 1; fill: none;" id="pairs">
      <line id="1,29" x1="92.50000" y1="-101.74322" x2="107.50000" y2="-101.74322" />
      <line id="2,28" x1="92.50000" y1="-86.74322" x2="107.50000" y2="-86.74322" />
      <line id="3,27" x1="92.50000" y1="-71.74322" x2="107.50000" y2="-71.74322" />
      <line id="4,26" x1="92.50000" y1="-56.74322" x2="107.50000" y2="-56.74322" />
      <line id="5,25" x1="92.50000" y1="-41.74322" x2="107.50000" y2="-41.74322" />
      <line id="6,24" x1="92.50000" y1="-26.74322" x2="107.50000" y2="-26.74322" />
      <line id="7,23" x1="92.50000" y1="-11.74322" x2="107.50000" y2="-11.74322" />
      <line id="8,22" x1="92.50000" y1="3.25678" x2="107.50000" y2="3.25678" />
      <line id="9,21" x1="92.50000" y1="18.25678" x2="107.50000" y2="18.25678" />
      <line id="10,20" x1="92.50000" y1="33.25678" x2="107.50000" y2="33.25678" />
      <line id="11,19" x1="92.50000" y1="48.25678" x2="107.50000" y2="48.25678" />
    </g>
    <g style="font-family: SansSerif" transform="translate(-4.6, 4)" id="seq">
      <text x="92.500" y="-101.743">A</text>
      <text x="92.500" y="-86.743">A</text>
      <text x="92.500" y="-71.743">A</text>
      <text x="92.500" y="-56.743">A</text>
      <text x="92.500" y="-41.743">A</text>
      <text x="92.500" y="-26.743">A</text>
      <text x="92.500" y="-11.743">A</text>
      <text x="92.500" y="3.257">A</text>
      <text x="92.500" y="18.257">A</text>
      <text x="92.500" y="33.257">A</text>
      <text x="92.500" y="48.257">A</text>
      <text x="80.405" y="58.169">c</text>
      <text x="77.563" y="73.546">c</text>
      <text x="85.314" y="87.127">c</text>
      <text x="100.000" y="92.500">c</text>
      <text x="114.686" y="87.127">c</text>
      <text x="122.437" y="73.546">c</text>
      <text x="119.595" y="58.169">c</text>
      <text x="107.500" y="48.257">U</text>
      <text x="107.500" y="33.257">U</text>
      <text x="107.500" y="18.257">U</text>
      <text x="107.500" y="3.257">U</text>
      <text x="107.500" y="-11.743">U</text>
      <text x="107.500" y="-26.743">U</text>
      <text x="107.500" y="-41.743">U</text>
      <text x="107.500" y="-56.743">U</text>
      <text x="107.500" y="-71.743">U</text>
      <text x="107.500" y="-86.743">U</text>
      <text x="107.500" y="-101.743">U</text>
    </g>
  </g>
</svg>
